<?xml version="1.0" standalone="no"?><!DOCTYPE svg PUBLIC "-//W3C//DTD SVG 1.1//EN" "http://www.w3.org/Graphics/SVG/1.1/DTD/svg11.dtd"><svg t="1554114031407" class="icon" style="" viewBox="0 0 1110 1024" version="1.1" xmlns="http://www.w3.org/2000/svg" p-id="9299" xmlns:xlink="http://www.w3.org/1999/xlink" width="216.796875" height="200"><defs><style type="text/css"></style></defs><path d="M1.405756 1022.687892c-0.492757-10.204648-1.335027-19.498268-1.335027-28.786159C0.001973 685.630847-0.038136 377.35996 0.185324 69.083344c0.011459-12.26735 0.784973-25.107673 4.43481-36.670266 6.54908-20.741619 19.647241-33.175132 44.336644-32.37297 43.030266 1.392324 86.140748 0.326595 129.205392 0.406811 31.461943 0.057297 47.155671 12.828864 52.988535 43.643347 1.409513 7.425729 1.438162 15.189512 1.438162 22.798592 0.063027 312.092616 0.063027 624.179502 0.011459 936.272117 0 5.678162-0.636 11.356323-1.128756 19.532647l-230.065814-0.00573zM39.376671 47.648427v935.435577h157.338362V47.648427H39.376671zM533.823646 1023.99427H304.22767c-0.492757-10.657296-1.357946-20.684322-1.363675-30.722807-0.068757-306.362887-0.126054-612.731503 0.154702-919.08866 0.011459-14.100863 1.220432-28.797619 5.328648-42.159347C314.753183 11.224539 328.332641-0.733405 352.907449 0.068757c43.981401 1.443892 88.088856 1.569946 132.064526-0.017189 27.49124-0.991243 40.646698 13.172647 47.155671 36.395239 2.778919 9.918161 3.185729 20.747349 3.191459 31.169726 0.154703 310.178886 0.131784 620.363502 0.057298 930.542389 0.011459 7.471567-0.870919 14.937404-1.552757 25.835348z m-38.06832-39.678374V47.934914H339.093072v936.380982H495.755326zM887.743284 1009.498056c-25.021727-72.779019-49.802806-142.681715-73.117073-213.071437a182549.210025 182549.210025 0 0 1-199.159655-605.133882c-4.967675-15.183782-7.775242-31.330159-9.488431-47.258806-2.32054-21.635457 6.062053-38.343347 25.606159-50.192427 43.247995-26.213511 85.086478-54.799129 128.913176-79.981289 46.565509-26.757835 75.655343-14.748323 91.841828 35.868104 84.255667 263.498783 167.783658 527.226755 252.956081 790.427592 8.594594 26.557294 2.704432 38.360536-20.50097 51.538914-65.450696 37.191672-129.354365 77.076316-197.051115 117.803231zM802.032266 42.990158c-49.774157 30.121186-94.615017 58.764102-140.991444 84.679666-23.079349 12.89762-28.76897 25.056105-19.515458 51.607671 70.280857 201.526033 138.539121 403.751093 207.668303 605.672476 19.68162 57.480643 40.153942 114.691988 61.101831 174.412955 47.757292-27.588646 91.652747-54.312102 136.946256-78.445722 18.650268-9.94108 23.113727-19.114376 16.266701-39.689833-37.01978-111.231232-72.022695-223.132841-108.486691-334.541695-49.802806-152.147227-100.287449-304.065265-152.989498-463.695518z" fill="" p-id="9300"></path></svg>