<?xml version="1.0" encoding="utf-8"?>
<!-- Generator: Adobe Illustrator 23.0.2, SVG Export Plug-In . SVG Version: 6.00 Build 0)  -->
<svg version="1.1" id="图层_1" xmlns="http://www.w3.org/2000/svg" xmlns:xlink="http://www.w3.org/1999/xlink" x="0px" y="0px"
	 viewBox="0 0 200 200" style="enable-background:new 0 0 200 200;" xml:space="preserve">
<style type="text/css">
	.st0{fill:#FFFFFF;}
</style>
<path class="st0" d="M164.1,110.2H1.1v10.8C12,123.8,20,133.6,20,145.4c0,11.7-8.1,21.5-18.9,24.3v10.8h163
	c19.4,0,35.1-15.7,35.1-35.1S183.5,110.2,164.1,110.2L164.1,110.2z M164.1,171.2H17.5c7.3-6.4,11.8-15.7,11.8-25.9
	c0-10.2-4.5-19.5-11.8-25.9h146.6c14.3,0,25.9,11.6,25.9,25.9S178.4,171.2,164.1,171.2L164.1,171.2z"/>
<path class="st0" d="M199.3,27.6V16.7h-163c-19.4,0-35.1,15.7-35.1,35.1S16.8,87,36.3,87h163V76.2c-10.9-2.8-18.9-12.6-18.9-24.3
	C180.3,40.2,188.4,30.3,199.3,27.6L199.3,27.6z M171.1,51.9c0,10.2,4.5,19.5,11.8,25.9H36.2c-14.3,0-25.9-11.6-25.9-25.9
	S22,26,36.2,26h146.6C175.5,32.4,171,41.7,171.1,51.9L171.1,51.9z"/>
</svg>
