<?xml version="1.0" standalone="no"?><!DOCTYPE svg PUBLIC "-//W3C//DTD SVG 1.1//EN" "http://www.w3.org/Graphics/SVG/1.1/DTD/svg11.dtd"><svg t="1554109766178" class="icon" style="" viewBox="0 0 1024 1024" version="1.1" xmlns="http://www.w3.org/2000/svg" p-id="7228" xmlns:xlink="http://www.w3.org/1999/xlink" width="200" height="200"><defs><style type="text/css"></style></defs><path d="M512 783c149.67 0 271-121.33 271-271 0-149.67-121.33-271-271-271-149.67 0-271 121.33-271 271 0 149.67 121.33 271 271 271z m0.5-236.559L401 657.941 367.059 624l111.5-111.5-111.5-111.5L401 367.059l111.5 111.5 111.5-111.5L657.941 401l-111.5 111.5 111.5 111.5L624 657.941l-111.5-111.5zM512 831c-176.179 0-319-142.821-319-319s142.821-319 319-319 319 142.821 319 319-142.821 319-319 319z" p-id="7229"></path></svg>