<?xml version="1.0" encoding="utf-8"?>
<!-- Generator: Adobe Illustrator 23.0.2, SVG Export Plug-In . SVG Version: 6.00 Build 0)  -->
<svg version="1.1" id="图层_1" xmlns="http://www.w3.org/2000/svg" xmlns:xlink="http://www.w3.org/1999/xlink" x="0px" y="0px"
	 viewBox="0 0 200 200" style="enable-background:new 0 0 200 200;" xml:space="preserve">
<style type="text/css">
	.st0{fill:#1C80FF;}
</style>
<path class="st0" d="M134.8,140H65.2c-2.8,0-5,2.3-5,5c0,2.8,2.2,5,5,5h69.6c2.8,0,5-2.2,5-5c0,0,0,0,0,0
	C139.8,142.3,137.6,140,134.8,140z M149.7,40h-14.9V30h-13.4c-4.3-5.9-12.2-10-21.4-10S82.9,24,78.6,30H65.2v10H50.3
	c-11,0-19.9,9-19.9,20c0,0,0,0,0,0v100c0,11,8.9,20,19.9,20c0,0,0,0,0,0h99.4c11,0,19.9-9,19.9-20c0,0,0,0,0,0V60
	C169.6,49,160.7,40,149.7,40C149.7,40,149.7,40,149.7,40z M75.1,40h11c0-5.5,6.2-10,13.8-10c7.6,0,13.8,4.5,13.8,10h11v20H75.2
	L75.1,40L75.1,40z M159.7,160c0,5.5-4.5,10-9.9,10H50.3c-5.5,0-10-4.5-9.9-10c0,0,0,0,0,0V60c0-5.5,4.5-10,9.9-10h14.9v20h69.6V50
	h14.9c5.5,0,9.9,4.5,9.9,10V160L159.7,160z M134.8,90H65.2c-2.8,0-5,2.3-5,5c0,0,0,0,0,0c0,2.8,2.2,5,5,5h69.6c2.8,0,5-2.2,5-5
	c0,0,0,0,0,0C139.8,92.2,137.6,90,134.8,90z M134.8,115H65.2c-2.8,0-5,2.3-5,5c0,2.8,2.2,5,5,5h69.6c2.8,0,5-2.2,5-5c0,0,0,0,0,0
	C139.8,117.3,137.6,115,134.8,115z"/>
</svg>
