<?xml version="1.0" standalone="no"?><!DOCTYPE svg PUBLIC "-//W3C//DTD SVG 1.1//EN" "http://www.w3.org/Graphics/SVG/1.1/DTD/svg11.dtd"><svg t="1554106296829" class="icon" style="" viewBox="0 0 1024 1024" version="1.1" xmlns="http://www.w3.org/2000/svg" p-id="1817" xmlns:xlink="http://www.w3.org/1999/xlink" width="200" height="200"><defs><style type="text/css"></style></defs><path d="M734.608473 768H289.391082a31.922087 31.922087 0 0 0-31.788522 32.01113c0 17.67513 14.246957 31.966609 31.788522 31.966609h445.217391a31.877565 31.877565 0 0 0 31.788522-31.966609 31.922087 31.922087 0 0 0-31.788522-32.01113z m95.410087-640H734.608473V63.977739h-85.659826C621.38969 25.956174 570.67943 0 511.999777 0S402.609864 25.911652 375.050908 64.022261H289.391082v63.977739H193.980995A127.599304 127.599304 0 0 0 66.782386 256v640A127.599304 127.599304 0 0 0 193.980995 1024h636.037565A127.599304 127.599304 0 0 0 957.217169 896V256a127.599304 127.599304 0 0 0-127.198609-128z m-477.005913 0h70.656c0-35.350261 39.535304-64.022261 88.33113-64.022261s88.33113 28.672 88.331131 64.022261h70.656V256H353.057169V128z m540.582956 768c0 35.350261-28.493913 64.022261-63.577043 64.022261H193.980995a63.799652 63.799652 0 0 1-63.577044-64.022261V256c0-35.350261 28.493913-64.022261 63.577044-64.022261H289.391082v128h445.217391V192.022261h95.410087c35.127652 0 63.577043 28.672 63.577043 64.022261v640zM734.608473 447.977739H289.391082a31.922087 31.922087 0 0 0-31.788522 32.055652c0 17.67513 14.246957 31.966609 31.788522 31.966609h445.217391a31.877565 31.877565 0 0 0 31.788522-32.01113 31.922087 31.922087 0 0 0-31.788522-32.011131z m0 160.011131H289.391082a31.922087 31.922087 0 0 0-31.788522 32.01113c0 17.67513 14.246957 32.01113 31.788522 32.01113h445.217391a31.877565 31.877565 0 0 0 31.788522-32.01113 31.922087 31.922087 0 0 0-31.788522-32.01113z" fill="#ffffff" p-id="1818"></path></svg>