<?xml version="1.0" standalone="no"?><!DOCTYPE svg PUBLIC "-//W3C//DTD SVG 1.1//EN" "http://www.w3.org/Graphics/SVG/1.1/DTD/svg11.dtd"><svg t="1554109286890" class="icon" style="" viewBox="0 0 1505 1024" version="1.1" xmlns="http://www.w3.org/2000/svg" p-id="3455" xmlns:xlink="http://www.w3.org/1999/xlink" width="293.9453125" height="200"><defs><style type="text/css"></style></defs><path d="M1214.102588 387.192471C1170.130824 166.430118 981.955765 0 752.941176 0 571.030588 0 414.117647 105.592471 335.691294 259.192471 147.456 278.407529 0 441.584941 0 640 0 851.184941 169.441882 1024 376.470588 1024h815.706353C1364.690824 1024 1505.882353 880.037647 1505.882353 704.030118c0-169.622588-128.602353-307.2-291.779765-316.837647zM1195.670588 903.529412H373.458824C234.315294 903.529412 120.470588 786.070588 120.470588 642.529882c0-143.600941 113.844706-261.059765 252.988236-261.059764h44.272941C458.872471 231.424 591.691294 120.470588 752.941176 120.470588c192.873412 0 347.858824 159.864471 347.858824 358.881883V512h94.870588c104.327529 0 189.741176 88.124235 189.741177 195.764706S1299.998118 903.529412 1195.670588 903.529412z" p-id="3456"></path></svg>