<?xml version="1.0" encoding="utf-8"?>
<!-- Generator: Adobe Illustrator 23.0.2, SVG Export Plug-In . SVG Version: 6.00 Build 0)  -->
<svg version="1.1" id="图层_1" xmlns="http://www.w3.org/2000/svg" xmlns:xlink="http://www.w3.org/1999/xlink" x="0px" y="0px"
	 viewBox="0 0 293.9 200" style="enable-background:new 0 0 293.9 200;" xml:space="preserve">
<style type="text/css">
	.st0{fill:#1C80FF;}
</style>
<path class="st0" d="M237.1,75.6C228.5,32.5,191.8,0,147.1,0c-35.5,0-66.2,20.6-81.5,50.6C28.8,54.4,0,86.2,0,125
	c0,41.2,33.1,75,73.5,75h159.3c33.7,0,61.3-28.1,61.3-62.5C294.1,104.4,269,77.5,237.1,75.6z M233.5,176.5H72.9
	c-27.2,0-49.4-22.9-49.4-51c0-28,22.2-51,49.4-51h8.6c8-29.3,34-51,65.5-51c37.7,0,67.9,31.2,67.9,70.1v6.4h18.5
	c20.4,0,37.1,17.2,37.1,38.2S253.9,176.5,233.5,176.5z"/>
</svg>
