<?xml version="1.0" encoding="utf-8"?>
<!-- Generator: Adobe Illustrator 23.0.2, SVG Export Plug-In . SVG Version: 6.00 Build 0)  -->
<svg version="1.1" id="图层_1" xmlns="http://www.w3.org/2000/svg" xmlns:xlink="http://www.w3.org/1999/xlink" x="0px" y="0px"
	 viewBox="0 0 200 200" style="enable-background:new 0 0 200 200;" xml:space="preserve">
<style type="text/css">
	.st0{fill:#FF0000;}
</style>
<path class="st0" d="M139.3,151.6c-2.2,0-3.9-1.8-3.9-4.1V69.7c0-2.2,1.8-4.1,3.9-4.1c2.2,0,3.9,1.8,3.9,4.1v77.8
	C143.3,149.8,141.5,151.6,139.3,151.6 M99.8,151.6c-2.2,0-3.9-1.8-3.9-4.1V69.7c0-2.2,1.8-4.1,3.9-4.1c2.2,0,3.9,1.8,3.9,4.1v77.8
	C103.7,149.8,101.9,151.6,99.8,151.6 M60.2,151.6c-2.2,0-3.9-1.8-3.9-4.1V69.7c0-2.2,1.8-4.1,3.9-4.1s3.9,1.8,3.9,4.1v77.8
	C64.1,149.8,62.4,151.6,60.2,151.6 M126.2,8.3c2.5,0,5.3,3.4,5.3,8.2v12.3H68.1V16.5c0-4.8,2.8-8.2,5.3-8.2L126.2,8.3 M126.2,0.2
	H73.4c-7.3,0-13.2,7.3-13.2,16.4V37h79.1V16.5C139.3,7.5,133.4,0.2,126.2,0.2"/>
<path class="st0" d="M191.8,37H7.7c-2.2,0-3.9-1.8-3.9-4.1s1.8-4.1,3.9-4.1h184.1c2.2,0,3.9,1.8,3.9,4.1C195.8,35.2,194,37,191.8,37
	"/>
<path class="st0" d="M161.4,198H38.1c-10.7,0-19.4-10-19.4-22.2V31.2h7.9v144.7c0,7.7,5.1,14,11.4,14h123.3c6.3,0,11.5-6.3,11.5-14
	V31.2h7.9v144.7C180.8,188,172.1,198,161.4,198"/>
</svg>
