<?xml version="1.0" standalone="no"?><!DOCTYPE svg PUBLIC "-//W3C//DTD SVG 1.1//EN" "http://www.w3.org/Graphics/SVG/1.1/DTD/svg11.dtd"><svg t="1554115974465" class="icon" style="" viewBox="0 0 1340 1024" version="1.1" xmlns="http://www.w3.org/2000/svg" p-id="13254" xmlns:xlink="http://www.w3.org/1999/xlink" width="261.71875" height="200"><defs><style type="text/css"></style></defs><path d="M52.512821 52.512821m-52.512821 0a2 2 0 1 0 105.025641 0 2 2 0 1 0-105.025641 0Z" p-id="13255"></path><path d="M52.512821 498.871795m-52.512821 0a2 2 0 1 0 105.025641 0 2 2 0 1 0-105.025641 0Z" p-id="13256"></path><path d="M52.512821 971.487179m-52.512821 0a2 2 0 1 0 105.025641 0 2 2 0 1 0-105.025641 0Z" p-id="13257"></path><path d="M367.589744 0l945.230769 0c14.493538 0 26.25641 11.762872 26.25641 26.25641l0 26.25641c0 14.493538-11.762872 26.25641-26.25641 26.25641L367.589744 78.769231c-14.493538 0-26.25641-11.762872-26.25641-26.25641L341.333333 26.25641C341.333333 11.762872 353.096205 0 367.589744 0z" p-id="13258"></path><path d="M367.589744 472.615385l945.230769 0c14.493538 0 26.25641 11.762872 26.25641 26.25641l0 26.25641c0 14.493538-11.762872 26.25641-26.25641 26.25641L367.589744 551.384615c-14.493538 0-26.25641-11.762872-26.25641-26.25641l0-26.25641C341.333333 484.378256 353.096205 472.615385 367.589744 472.615385z" p-id="13259"></path><path d="M367.589744 945.230769l945.230769 0c14.493538 0 26.25641 11.762872 26.25641 26.25641l0 26.25641c0 14.493538-11.762872 26.25641-26.25641 26.25641L367.589744 1024c-14.493538 0-26.25641-11.762872-26.25641-26.25641l0-26.25641C341.333333 956.993641 353.096205 945.230769 367.589744 945.230769z" p-id="13260"></path></svg>