<?xml version="1.0" standalone="no"?><!DOCTYPE svg PUBLIC "-//W3C//DTD SVG 1.1//EN" "http://www.w3.org/Graphics/SVG/1.1/DTD/svg11.dtd"><svg t="1553682901567" class="icon" style="" viewBox="0 0 1024 1024" version="1.1" xmlns="http://www.w3.org/2000/svg" p-id="2600" xmlns:xlink="http://www.w3.org/1999/xlink" width="200" height="200"><defs><style type="text/css"></style></defs><path d="M145.6 0c-44.8 0-80 36.8-80 81.6V944c0 44.8 35.2 80 80 80h732.8c44.8 0 81.6-35.2 81.6-80V326.4L657.6 0h-512z" fill="#49C9A7" p-id="2601"></path><path d="M960 326.4v16H755.2s-100.8-20.8-99.2-108.8c0 0 4.8 92.8 97.6 92.8H960z" fill="#37BB91" p-id="2602"></path><path d="M657.6 0v233.6c0 25.6 17.6 92.8 97.6 92.8H960L657.6 0z" fill="#FFFFFF" p-id="2603"></path><path d="M225.6 859.2V524.8H560v334.4H225.6z m300.8-300.8H259.2v201.6h267.2V558.4z m-153.6 134.4l62.4-84.8 20.8 33.6 20.8-6.4 16 89.6H283.2l56-52.8 33.6 20.8z m-60.8-59.2c-14.4 0-27.2-9.6-27.2-24 0-12.8 12.8-24 27.2-24 14.4 0 25.6 11.2 25.6 24 0 14.4-11.2 24-25.6 24z" fill="#FFFFFF" p-id="2604"></path></svg>