<?xml version="1.0" standalone="no"?><!DOCTYPE svg PUBLIC "-//W3C//DTD SVG 1.1//EN" "http://www.w3.org/Graphics/SVG/1.1/DTD/svg11.dtd"><svg t="1553862087338" class="icon" style="" viewBox="0 0 1024 1024" version="1.1" xmlns="http://www.w3.org/2000/svg" p-id="2605" xmlns:xlink="http://www.w3.org/1999/xlink" width="200" height="200"><defs><style type="text/css"></style></defs><path d="M465.9 263c0-12.6 4.2-23.1 12.6-31.5s19-12.7 31.9-12.7c12.5 0 22.8 4.2 31.1 12.7s12.4 19 12.4 31.5c0 12.2-4.1 22.7-12.4 31.5s-18.6 13.2-31.1 13.2c-12.8 0-23.4-4.4-31.9-13.2s-12.6-19.3-12.6-31.5z m0 250.5c0-12.2 4.2-22.6 12.6-31s19-12.7 31.9-12.7c12.5 0 22.8 4.2 31.1 12.7s12.4 18.8 12.4 31c0 12.5-4.1 23.2-12.4 32s-18.6 13.2-31.1 13.2c-12.8 0-23.4-4.4-31.9-13.2s-12.6-19.5-12.6-32z m0 253c0-12.5 4.2-23 12.6-31.3s19-12.5 31.9-12.5c12.5 0 22.8 4.1 31.1 12.5 8.3 8.3 12.4 18.7 12.4 31.3 0 12.5-4.1 23.2-12.4 32s-18.6 13.2-31.1 13.2c-12.8 0-23.4-4.4-31.9-13.2s-12.6-19.5-12.6-32z" p-id="2606"></path></svg>