<?xml version="1.0" standalone="no"?><!DOCTYPE svg PUBLIC "-//W3C//DTD SVG 1.1//EN" "http://www.w3.org/Graphics/SVG/1.1/DTD/svg11.dtd"><svg t="1554106202903" class="icon" style="" viewBox="0 0 1024 1024" version="1.1" xmlns="http://www.w3.org/2000/svg" p-id="1101" xmlns:xlink="http://www.w3.org/1999/xlink" width="200" height="200"><defs><style type="text/css"></style></defs><path d="M849.273263 199.141053c17.677474 17.677474 26.516211 39.181474 26.516211 64.458105v629.005474c0 25.330526-8.838737 46.780632-26.516211 64.458105a87.686737 87.686737 0 0 1-64.458105 26.51621H239.130947c-25.222737 0-46.726737-8.838737-64.40421-26.51621a87.686737 87.686737 0 0 1-26.516211-64.458105V104.448c0-25.330526 8.838737-46.780632 26.516211-64.458105A87.686737 87.686737 0 0 1 239.130947 13.473684H625.717895c25.330526 0 46.780632 8.838737 64.458105 26.516211l159.151158 159.151158z m-43.600842 43.600842L646.521263 83.536842a50.553263 50.553263 0 0 0-13.258105-9.485474V256h181.894737a50.553263 50.553263 0 0 0-9.485474-13.258105z m-20.857263 680.205473a29.534316 29.534316 0 0 0 21.827368-8.515368 29.534316 29.534316 0 0 0 8.515369-21.827368V316.631579H618.118737a43.870316 43.870316 0 0 1-32.229053-13.258105 43.870316 43.870316 0 0 1-13.258105-32.229053V74.105263H239.130947a29.480421 29.480421 0 0 0-21.773473 8.515369 29.480421 29.480421 0 0 0-8.515369 21.827368v788.156632c0 8.892632 2.856421 16.168421 8.515369 21.827368 5.712842 5.658947 12.934737 8.515368 21.773473 8.515368h545.684211z m-90.920421-447.164631a21.935158 21.935158 0 0 1-6.629053 16.114526 21.935158 21.935158 0 0 1-16.114526 6.629053H352.848842a21.935158 21.935158 0 0 1-16.114526-6.629053 21.935158 21.935158 0 0 1-6.629053-16.114526v-15.144421c0-6.305684 2.209684-11.695158 6.629053-16.114527a21.935158 21.935158 0 0 1 16.114526-6.629052h318.302316c6.305684 0 11.695158 2.209684 16.114526 6.629052a21.935158 21.935158 0 0 1 6.629053 16.114527v15.144421z m0 121.263158a21.935158 21.935158 0 0 1-6.629053 16.114526 21.935158 21.935158 0 0 1-16.114526 6.629053H352.848842a21.935158 21.935158 0 0 1-16.114526-6.629053 21.935158 21.935158 0 0 1-6.629053-16.114526v-15.144421c0-6.305684 2.209684-11.695158 6.629053-16.114527a21.935158 21.935158 0 0 1 16.114526-6.629052h318.302316c6.305684 0 11.695158 2.209684 16.114526 6.629052a21.935158 21.935158 0 0 1 6.629053 16.114527v15.144421z m0 121.263158a21.935158 21.935158 0 0 1-6.629053 16.114526 21.935158 21.935158 0 0 1-16.114526 6.629053H352.848842a21.935158 21.935158 0 0 1-16.114526-6.629053 21.935158 21.935158 0 0 1-6.629053-16.114526v-15.144421c0-6.305684 2.209684-11.695158 6.629053-16.114527a21.935158 21.935158 0 0 1 16.114526-6.629052h318.302316c6.305684 0 11.695158 2.209684 16.114526 6.629052a21.935158 21.935158 0 0 1 6.629053 16.114527v15.144421z" fill="#1c80ff" p-id="1102"></path></svg>