<?xml version="1.0" standalone="no"?><!DOCTYPE svg PUBLIC "-//W3C//DTD SVG 1.1//EN" "http://www.w3.org/Graphics/SVG/1.1/DTD/svg11.dtd"><svg t="1554109521273" class="icon" style="" viewBox="0 0 1024 1024" version="1.1" xmlns="http://www.w3.org/2000/svg" p-id="6001" xmlns:xlink="http://www.w3.org/1999/xlink" width="200" height="200"><defs><style type="text/css"></style></defs><path d="M949.216 63.44c-33.696-32.4-70.88-48.832-110.576-48.832-62.064 0-107.344 40.224-119.728 52.544C701.488 84.496 106.832 681.488 106.832 681.488c-3.888 3.92-6.72 8.8-8.176 14.176-13.424 49.728-80.576 270.416-81.264 272.624-3.456 11.296-0.384 23.616 7.92 31.936 5.984 5.952 13.936 9.168 22.08 9.168 3.2 0 6.448-0.496 9.6-1.52 2.288-0.752 229.248-74.384 266.608-85.568 4.912-1.472 9.424-4.16 13.072-7.792 23.616-23.408 578.224-573.824 615.04-611.984 38.08-39.376 56.992-80.384 56.256-121.856C1007.248 139.696 987.472 100.272 949.216 63.44zM63.68 959.648c21.184-70 58.656-183.52 71.248-228.464 1.968-1.984 4.416-4.448 7.2-7.232 3.6 7.904 11.008 13.856 20.16 15.008 1.632 0.224 40.672 5.552 80.624 45.824 35.504 35.776 41.648 77.44 41.68 77.696 0.832 6.64 4.128 12.32 8.8 16.336-2.432 2.416-4.672 4.64-6.416 6.368C248.24 897.168 133.888 936.928 63.68 959.648zM332.176 840.352c-5.472-20.624-19.392-58.208-52.992-92.08-41.696-42.016-84.48-55.168-102.432-59.072 117.728-118.224 418.16-419.92 536.704-538.88 3.248 8.736 11.024 15.456 20.832 16.688 1.648 0.224 40.672 5.536 80.64 45.84 35.488 35.776 41.648 77.392 41.664 77.648 0.96 7.536 5.216 13.6 10.944 17.632C747.616 427.936 451.776 721.632 332.176 840.352zM917.232 258.16c-2.304 2.4-6.544 6.688-12.448 12.624-4.992-19.952-18.624-59.2-53.616-94.464-43.184-43.52-87.648-56.128-104.352-59.488 8.464-8.48 14-14.048 15.504-15.536 3.792-3.776 38.384-36.944 81.488-36.944 24.816 0 49.168 11.36 72.432 33.744 27.584 26.56 41.808 52.768 42.272 77.904C958.976 201.664 945.088 229.328 917.232 258.16z" p-id="6002"></path></svg>