<?xml version="1.0" standalone="no"?><!DOCTYPE svg PUBLIC "-//W3C//DTD SVG 1.1//EN" "http://www.w3.org/Graphics/SVG/1.1/DTD/svg11.dtd"><svg t="1556087065436" class="icon" style="" viewBox="0 0 1024 1024" version="1.1" xmlns="http://www.w3.org/2000/svg" p-id="5500" xmlns:xlink="http://www.w3.org/1999/xlink" width="200" height="200"><defs><style type="text/css"></style></defs><path d="M855.424 0 168.554667 0C75.605333 0 0 75.605333 0 168.554667L0 855.466667C0 948.373333 75.605333 1024 168.554667 1024L855.466667 1024c92.906667 0 168.533333-75.626667 168.533333-168.533333L1024 168.554667C1024 75.605333 948.373333 0 855.424 0zM213.802667 42.730667l596.373333 0c-0.170667 1.066667-0.64 2.048-0.64 3.157333L809.536 340.266667c0 28.778667-23.424 52.224-52.202667 52.224l-490.666667 0c-28.778667 0-52.224-23.424-52.224-52.224L214.442667 45.888C214.442667 44.778667 213.973333 43.797333 213.802667 42.730667zM981.248 855.466667c0 69.376-56.448 125.802667-125.824 125.802667L168.554667 981.269333c-69.376 0-125.824-56.448-125.824-125.802667L42.730667 168.554667c0-69.376 56.448-125.824 125.824-125.824l3.797333 0c-0.170667 1.066667-0.64 2.048-0.64 3.157333l0 294.4c0 52.330667 42.602667 94.954667 94.976 94.954667l490.602667 0c52.373333 0 94.976-42.602667 94.976-94.976L852.266667 45.888c0-1.109333-0.469333-2.090667-0.64-3.157333l3.797333 0c69.376 0 125.824 56.469333 125.824 125.824L981.248 855.466667z" p-id="5501" fill="#ffffff"></path><path d="M659.157333 312.576c11.84 0 21.376-9.557333 21.376-21.354667l0-147.2c0-11.776-9.536-21.354667-21.376-21.354667-11.797333 0-21.376 9.578667-21.376 21.354667l0 147.2C637.781333 303.018667 647.381333 312.576 659.157333 312.576z" p-id="5502" fill="#ffffff"></path></svg>