<?xml version="1.0" standalone="no"?><!DOCTYPE svg PUBLIC "-//W3C//DTD SVG 1.1//EN" "http://www.w3.org/Graphics/SVG/1.1/DTD/svg11.dtd"><svg t="1554180496413" class="icon" style="" viewBox="0 0 1024 1024" version="1.1" xmlns="http://www.w3.org/2000/svg" p-id="1701" xmlns:xlink="http://www.w3.org/1999/xlink" width="200" height="200"><defs><style type="text/css"></style></defs><path d="M729.315556 835.128889H306.062222c-58.026667 0-105.813333-47.217778-105.813333-105.813333V306.631111c0-58.026667 47.217778-105.813333 105.813333-105.813333h423.253334c58.026667 0 105.813333 47.217778 105.813333 105.813333v423.253333c0 58.026667-47.786667 105.244444-105.813333 105.244445zM306.062222 246.328889c-32.995556 0-60.302222 26.737778-60.302222 60.302222v423.253333c0 32.995556 26.737778 60.302222 60.302222 60.302223h423.253334c32.995556 0 60.302222-26.737778 60.302222-60.302223V306.631111c0-32.995556-26.737778-60.302222-60.302222-60.302222H306.062222z" p-id="1702"></path><path d="M645.688889 543.857778h-256c-34.133333 0-62.577778-27.875556-62.577778-62.577778V227.555556c0-12.515556 10.24-22.755556 22.755556-22.755556h335.644444c12.515556 0 22.755556 10.24 22.755556 22.755556v254.293333c0 34.133333-27.875556 62.008889-62.577778 62.008889zM372.622222 250.311111v231.537778c0 9.102222 7.395556 17.066667 17.066667 17.066667h256.568889c9.102222 0 17.066667-7.395556 17.066666-17.066667V250.311111H372.622222z" p-id="1703"></path><path d="M587.093333 434.062222c-12.515556 0-22.755556-10.24-22.755555-22.755555V329.955556c0-12.515556 10.24-22.755556 22.755555-22.755556s22.755556 10.24 22.755556 22.755556v81.351111c0 12.515556-9.671111 22.755556-22.755556 22.755555z" p-id="1704"></path></svg>