<?xml version="1.0" standalone="no"?><!DOCTYPE svg PUBLIC "-//W3C//DTD SVG 1.1//EN" "http://www.w3.org/Graphics/SVG/1.1/DTD/svg11.dtd"><svg t="1554107069507" class="icon" style="" viewBox="0 0 1024 1024" version="1.1" xmlns="http://www.w3.org/2000/svg" p-id="2635" xmlns:xlink="http://www.w3.org/1999/xlink" width="200" height="200"><defs><style type="text/css"></style></defs><path d="M382.656 47.712c210.72-19.392 380.736 143.872 396.224 333.76 17.44 212.16-141.92 380.736-333.248 396.704-212.64 17.92-380.256-141.44-397.184-332.768-8.224-93.984 25.664-209.728 90.112-274.656 16-16.48 27.136-29.056 46.976-45.056 54.24-43.584 122.56-71.2 197.152-77.984zM724.16 686.144c2.432-3.392 8.704-10.656 11.616-14.528 4.832-5.824 6.784-8.224 11.136-13.568 7.264-10.656 13.568-19.36 20.352-31.008 73.152-119.648 79.936-277.056 14.048-402.048-27.616-53.76-47.456-75.552-87.2-114.304-153.568-151.616-420.448-146.784-574.976 12.096-110.432 113.344-156.448 294.016-84.768 454.368 22.752 51.84 44.576 82.816 80.416 120.608 115.296 121.088 293.056 162.752 450.976 99.776a431.328 431.328 0 0 0 66.848-33.92c28.096-16.96 50.368-38.272 57.632-43.104 9.216 4.352 105.12 105.12 120.128 121.088 6.784 6.784 13.568 11.616 20.352 18.4l138.048 141.92c8.704 8.704 30.048 35.36 48.928 13.568 18.4-20.832-8.224-38.752-18.88-49.888l-117.696-120.608c-7.264-7.744-14.528-12.608-21.312-19.872l-58.112-59.584c-25.664-26.656-51.36-53.76-77.504-79.456z" p-id="2636"></path></svg>