<?xml version="1.0" encoding="utf-8"?>
<!-- Generator: Adobe Illustrator 23.0.2, SVG Export Plug-In . SVG Version: 6.00 Build 0)  -->
<svg version="1.1" id="图层_1" xmlns="http://www.w3.org/2000/svg" xmlns:xlink="http://www.w3.org/1999/xlink" x="0px" y="0px"
	 viewBox="0 0 200 200" style="enable-background:new 0 0 200 200;" xml:space="preserve">
<style type="text/css">
	.st0{fill:#1C80FF;}
</style>
<path class="st0" d="M149,135.2c-6.3,0-12,2.5-16.4,6.4l-59.4-34.7c0.4-1.9,0.7-3.8,0.7-5.8c0-2-0.3-3.9-0.7-5.8L132,61.1
	c4.4,4.2,10.4,6.8,17,6.8c13.8,0,25-11.2,25-25s-11.1-25-25-25c-13.8,0-25,11.2-25,25l0,0c0,2,0.3,3.9,0.7,5.8L66,83
	c-4.6-4.4-10.7-6.8-17-6.8c-13.8,0-25,11.2-25,25s11.2,25,25,25c6.6,0,12.5-2.6,17-6.8l59.3,34.6c-0.4,1.8-0.6,3.6-0.6,5.4
	c0,13.4,10.8,24.3,24.3,24.3c13.4,0,24.3-10.8,24.3-24.3C173.2,146.2,162.4,135.3,149,135.2C149,135.3,149,135.3,149,135.2
	L149,135.2z"/>
</svg>
