<svg id="图层_1" data-name="图层 1" xmlns="http://www.w3.org/2000/svg" viewBox="0 0 785.4 503.71"><defs><style>.cls-1,.cls-2,.cls-3,.cls-5,.cls-6{fill:none;stroke:#666;stroke-miterlimit:10;}.cls-1{stroke-width:10px;}.cls-2,.cls-5,.cls-6{stroke-width:5px;}.cls-3{stroke-width:2px;}.cls-4{font-size:100px;fill:#666;font-family:YouYuan;}.cls-5{stroke-dasharray:12.26 12.26;}.cls-6{stroke-dasharray:12;}</style></defs><title>nullBookshelf</title><line class="cls-1" x1="9.4" y1="360" x2="785.4" y2="360"/><polygon class="cls-2" points="100.02 359.48 142.15 359.48 162.34 235.43 79.83 235.43 100.02 359.48"/><path class="cls-3" d="M206.14,445.88c-1.36-2.42-3.09-4.56-3.38-7.46-.43-5.66,0-11.31-.14-17-.14-3.82-.43-7.49-.72-11.31-.14-2.29-.57-4.43-.72-6.73-.14-1.68-.57-3.36-.72-5.19a85.49,85.49,0,0,0-2.73-12.08,52.89,52.89,0,0,0-4.74-11c-.14-.15-.29-.15-.43-.3-1.44-2.6-3-4.74-4.6-7.34a15.45,15.45,0,0,1-1.29-2.75,6.94,6.94,0,0,0-1.58-2c-.44-.61-.72-1.22-1.15-1.83-.29-.15-.43-.46-.72-.92-2-2.44-3.88-4.74-5.75-7.34a30.62,30.62,0,0,0-6.47-5.81l-.86-.91c-8-5.66-17.25-7-26.51-7.1a.72.72,0,0,0,.43.05,2.1,2.1,0,0,0-.43-.05,8.08,8.08,0,0,0,1.5,1.59,2.1,2.1,0,0,0-1.5-1.59,1.45,1.45,0,0,0,.34.4.54.54,0,0,0-.34-.4,32,32,0,0,1,6.68,17.65c.43,6.87.57,13.6.71,20.48.15,1.37.29,2.75.43,4.28,2,12.53,6.33,23.85,14.23,33.48.15.15.15.45.29.61a76.34,76.34,0,0,0,5.75,6.11,86.34,86.34,0,0,0,6.75,5.51c6.33,4.58,12.36,7.79,18,13.14.14.15.43.15.58.31,2.29,2,3.85,5.21,6,7.41" transform="translate(-119.1 -244.5)"/><path class="cls-3" d="M136.45,333.19a14.75,14.75,0,0,0-5.7-.22l-8.42.76c6.46,3.73,13.85,4.48,21.3,5.11a25.64,25.64,0,0,0-3-3.1A11.76,11.76,0,0,0,136.45,333.19Z" transform="translate(-119.1 -244.5)"/><path class="cls-3" d="M149.91,343.85a70.32,70.32,0,0,1,20.31,23.7c1.5,2.78,2.86,5.64,4.22,8.5l4.81,10.12c1.49,3.14,3,6.28,4.3,9.5,5.92,14.51,8.37,30.81,17,43.69" transform="translate(-119.1 -244.5)"/><path class="cls-3" d="M194.13,421.46a24.3,24.3,0,0,1,4.6-15.78" transform="translate(-119.1 -244.5)"/><path class="cls-3" d="M187.76,402.12l.2-6.22a16.85,16.85,0,0,1,1.06-6.45c.83-1.84,2.3-3.28,3.12-5.12" transform="translate(-119.1 -244.5)"/><path class="cls-3" d="M178.68,377.85a21.11,21.11,0,0,1,2.94-12.53" transform="translate(-119.1 -244.5)"/><path class="cls-3" d="M151.54,358.05c.92,1.39,2.7,1.67,4.26,2.06a33.79,33.79,0,0,1,8.14,3.73" transform="translate(-119.1 -244.5)"/><path class="cls-3" d="M154.51,377.22c6.13.86,12.59,1.86,17.41,6" transform="translate(-119.1 -244.5)"/><path class="cls-3" d="M164.55,398.21a44.32,44.32,0,0,1,10.5,2.53,17.93,17.93,0,0,1,7,4.23" transform="translate(-119.1 -244.5)"/><path class="cls-3" d="M226.93,562c-2.91-30.78-4.72-62.12-14.19-91.77A102.06,102.06,0,0,0,202.4,446.9" transform="translate(-119.1 -244.5)"/><path class="cls-3" d="M206,445.71C223,482,224,523,228.65,562" transform="translate(-119.1 -244.5)"/><path class="cls-3" d="M251.62,375.91a.62.62,0,0,0,.3.88,1.78,1.78,0,0,0,1.05.06.36.36,0,0,0,.2-.08c.12-.11,0-.32-.09-.44a1.52,1.52,0,0,0-1.69-.3" transform="translate(-119.1 -244.5)"/><path class="cls-3" d="M253.22,365.34a.63.63,0,0,0,.31.88,1.87,1.87,0,0,0,1.05,0,.35.35,0,0,0,.2-.07c.12-.12,0-.33-.09-.45a1.51,1.51,0,0,0-1.69-.29" transform="translate(-119.1 -244.5)"/><path class="cls-3" d="M259.74,367.75a.62.62,0,0,0,.3.88,1.78,1.78,0,0,0,1,.06.44.44,0,0,0,.2-.08c.12-.11,0-.32-.09-.44a1.52,1.52,0,0,0-1.69-.3" transform="translate(-119.1 -244.5)"/><path class="cls-3" d="M248.23,372.71a.63.63,0,0,0,.3.88,1.87,1.87,0,0,0,1.05.05.4.4,0,0,0,.2-.07c.13-.12,0-.33-.09-.45a1.51,1.51,0,0,0-1.69-.3" transform="translate(-119.1 -244.5)"/><path class="cls-3" d="M256.29,370.55a.63.63,0,0,0,.3.88,1.87,1.87,0,0,0,1.05.05.35.35,0,0,0,.2-.07c.13-.12,0-.33-.09-.45a1.53,1.53,0,0,0-1.69-.3" transform="translate(-119.1 -244.5)"/><path class="cls-3" d="M259.87,362.3c-.23.28,0,.72.3.88a1.87,1.87,0,0,0,1.05.05.35.35,0,0,0,.2-.07c.12-.12,0-.33-.09-.45a1.53,1.53,0,0,0-1.69-.3" transform="translate(-119.1 -244.5)"/><path class="cls-3" d="M256.47,359.66a.62.62,0,0,0,.3.88,1.71,1.71,0,0,0,1.05,0,.38.38,0,0,0,.21-.07c.12-.11,0-.32-.09-.44a1.52,1.52,0,0,0-1.69-.3" transform="translate(-119.1 -244.5)"/><path class="cls-3" d="M252.49,357.88a.63.63,0,0,0,.3.88,1.87,1.87,0,0,0,1.05.05.35.35,0,0,0,.2-.07c.13-.12,0-.33-.09-.45a1.51,1.51,0,0,0-1.69-.3" transform="translate(-119.1 -244.5)"/><path class="cls-3" d="M248.17,391.6a61,61,0,0,0-4.08,10.11c-.14.4,0,.57-.09,1-1,2.19-1.15,4.51-1.64,6.85a316.43,316.43,0,0,0-4.69,36.24c-.32,4.43-.66,8.68-.82,13.1-.12,4.8-.28,9.22-.41,14s-.11,9.4-.08,14c.18,23.94.85,47.64,1.22,71.33" transform="translate(-119.1 -244.5)"/><path class="cls-3" d="M244.93,390.71a76.82,76.82,0,0,0-4.82,15.56,375.8,375.8,0,0,0-4.6,39.49c-.94,11.58-1.27,22.34-1.23,33.64.05,26.44.91,52.62,1.28,78.89" transform="translate(-119.1 -244.5)"/><path class="cls-3" d="M243.79,385.18a31.27,31.27,0,0,1-13.16-29.46c1.81-13.18,11.9-23.69,22.6-31.6s22.72-14.38,31.48-24.39" transform="translate(-119.1 -244.5)"/><path class="cls-3" d="M256.43,387.44c13.41.49,26.48-9.37,29.69-22.4,4.26-17.22-6.68-32.8-6.94-50.55-.07-5.12,3.34-11.11,5.45-14.74" transform="translate(-119.1 -244.5)"/><path class="cls-3" d="M255.57,353.3c-1.73,1.47-3.54,3.06-4.18,5.23-.23.78-.29,1.61-.47,2.41a24.24,24.24,0,0,1-1,3,53.15,53.15,0,0,0-2.29,10.69,1.86,1.86,0,0,0,.05,1,2,2,0,0,0,.71.73,17.42,17.42,0,0,0,3.57,2.12,17,17,0,0,0,3.81.85,7.79,7.79,0,0,0,2.5.08,5.9,5.9,0,0,0,2.66-1.37,11.66,11.66,0,0,0,2.82-3.39,34.72,34.72,0,0,0,1.81-4.31c1-2.46,2.24-4.8,3.24-7.25a18.43,18.43,0,0,0,1.65-7.7,1.11,1.11,0,0,0-.16-.62,1.06,1.06,0,0,0-.41-.31c-1-.55-2-1.08-3.07-1.56a14.33,14.33,0,0,0-5.82-1.67,8.52,8.52,0,0,0-6.94,3.48" transform="translate(-119.1 -244.5)"/><path class="cls-3" d="M250.5,378.5c-.37-.59-.08.27-.26.81a12.85,12.85,0,0,1-2,4.31" transform="translate(-119.1 -244.5)"/><path class="cls-3" d="M254.53,379.52a11.46,11.46,0,0,0-3,5.25" transform="translate(-119.1 -244.5)"/><path class="cls-3" d="M264,356.5a.62.62,0,0,0,.3.88,1.78,1.78,0,0,0,1.05.06.36.36,0,0,0,.2-.08c.13-.11,0-.32-.09-.44a1.52,1.52,0,0,0-1.69-.3" transform="translate(-119.1 -244.5)"/><path class="cls-3" d="M259.23,372.31c-.23.28,0,.72.3.88a1.87,1.87,0,0,0,1.05.05.35.35,0,0,0,.2-.07c.12-.12,0-.33-.09-.45a1.53,1.53,0,0,0-1.69-.3" transform="translate(-119.1 -244.5)"/><path class="cls-3" d="M256.22,375.55a.62.62,0,0,0,.31.88,1.78,1.78,0,0,0,1.05.06.39.39,0,0,0,.2-.08c.12-.11,0-.32-.09-.44a1.52,1.52,0,0,0-1.69-.3" transform="translate(-119.1 -244.5)"/><path class="cls-3" d="M250.7,362.85a.62.62,0,0,0,.31.88,1.78,1.78,0,0,0,1.05.06.36.36,0,0,0,.2-.08c.12-.11,0-.32-.09-.44a1.52,1.52,0,0,0-1.69-.3" transform="translate(-119.1 -244.5)"/><path class="cls-3" d="M249.71,371.15c-.23.28,0,.72.3.88a1.87,1.87,0,0,0,1.05.05.35.35,0,0,0,.2-.07c.12-.12,0-.33-.09-.45a1.53,1.53,0,0,0-1.69-.3" transform="translate(-119.1 -244.5)"/><path class="cls-3" d="M257.88,354.9c-.22.27,0,.72.3.88a1.9,1.9,0,0,0,1.06.05.39.39,0,0,0,.2-.08c.12-.11,0-.32-.09-.44a1.52,1.52,0,0,0-1.69-.3" transform="translate(-119.1 -244.5)"/><path class="cls-3" d="M263.23,360.76c-.22.27,0,.72.3.88a1.87,1.87,0,0,0,1.05.05.36.36,0,0,0,.2-.08c.13-.11,0-.32-.09-.44a1.52,1.52,0,0,0-1.69-.3" transform="translate(-119.1 -244.5)"/><path class="cls-3" d="M248,392a5.93,5.93,0,0,1,2.61-3.33,8.84,8.84,0,0,1,3.17-1,18.81,18.81,0,0,1,3.18-.21" transform="translate(-119.1 -244.5)"/><path class="cls-3" d="M244.76,391.07l.44-1.27a4.56,4.56,0,0,0,.27-.92c.08-2.11-1.38-3.1-1.66-3.69" transform="translate(-119.1 -244.5)"/><path class="cls-3" d="M261.81,480.29c1.19-1.94,2.69-3.66,2.95-6,.37-4.55,0-9.1.12-13.65.13-3.07.38-6,.63-9.09.12-1.84.5-3.57.63-5.41.12-1.35.5-2.7.62-4.18a66.17,66.17,0,0,1,2.39-9.71,40.93,40.93,0,0,1,4.15-8.85c.12-.12.25-.12.37-.24,1.26-2.09,2.64-3.81,4-5.9a12.08,12.08,0,0,0,1.13-2.21,5.37,5.37,0,0,1,1.39-1.6c.37-.49.62-1,1-1.48.25-.12.38-.37.63-.73,1.76-2,3.39-3.81,5-5.9a25.63,25.63,0,0,1,5.66-4.67l.75-.74c7-4.55,15.07-5.66,23.17-5.71a.7.7,0,0,1-.38,0,2.33,2.33,0,0,1,.38,0,6.9,6.9,0,0,1-1.31,1.28,1.76,1.76,0,0,1,1.31-1.28,1.14,1.14,0,0,1-.3.32.44.44,0,0,1,.3-.32,24.51,24.51,0,0,0-5.84,14.19c-.37,5.53-.5,10.94-.62,16.47-.13,1.1-.26,2.21-.38,3.44-1.76,10.08-5.53,19.17-12.44,26.92-.12.12-.12.36-.25.49a61,61,0,0,1-5,4.91c-1.89,1.6-3.77,3-5.91,4.43-5.52,3.69-10.8,6.27-15.7,10.57-.12.12-.37.12-.5.24-2,1.6-3.37,4.19-5.21,6" transform="translate(-119.1 -244.5)"/><path class="cls-3" d="M322.71,389.69a14.11,14.11,0,0,1,5-.18l7.36.61c-5.65,3-12.1,3.61-18.61,4.11a21.13,21.13,0,0,1,2.6-2.49A10.47,10.47,0,0,1,322.71,389.69Z" transform="translate(-119.1 -244.5)"/><path class="cls-3" d="M311,398.26a58.19,58.19,0,0,0-17.75,19.06c-1.32,2.23-2.5,4.53-3.69,6.83l-4.2,8.13c-1.3,2.53-2.61,5.05-3.76,7.65-5.17,11.66-7.32,24.77-14.85,35.12" transform="translate(-119.1 -244.5)"/><path class="cls-3" d="M272.3,460.66a18.5,18.5,0,0,0-4-12.69" transform="translate(-119.1 -244.5)"/><path class="cls-3" d="M277.87,445.11l-.18-5a12.71,12.71,0,0,0-.92-5.19c-.73-1.47-2-2.63-2.73-4.12" transform="translate(-119.1 -244.5)"/><path class="cls-3" d="M285.8,425.6a15.94,15.94,0,0,0-2.56-10.08" transform="translate(-119.1 -244.5)"/><path class="cls-3" d="M309.53,409.67c-.81,1.12-2.37,1.35-3.73,1.67a30.63,30.63,0,0,0-7.12,3" transform="translate(-119.1 -244.5)"/><path class="cls-3" d="M306.93,425.09c-5.36.69-11,1.5-15.22,4.81" transform="translate(-119.1 -244.5)"/><path class="cls-3" d="M298.15,442a42.46,42.46,0,0,0-9.18,2,16,16,0,0,0-6.11,3.4" transform="translate(-119.1 -244.5)"/><path class="cls-3" d="M245.14,560.05c3.45-27.1,4.46-55.4,19.93-78.93" transform="translate(-119.1 -244.5)"/><path class="cls-3" d="M262,480.15c-4.48,8.28-7.28,17.46-9.75,26.39a225.75,225.75,0,0,0-6.1,31.9c-.9,7.14-1.71,14.29-2.49,21.44" transform="translate(-119.1 -244.5)"/><text class="cls-4" transform="translate(89.67 481.05)">书架还没有书</text><polyline class="cls-2" points="378.9 339.5 378.9 345.5 372.9 345.5"/><polyline class="cls-2" points="356.9 345.5 350.9 345.5 350.9 339.5"/><line class="cls-5" x1="350.9" y1="327.24" x2="350.9" y2="14.63"/><polyline class="cls-2" points="350.9 8.5 350.9 2.5 356.9 2.5"/><polyline class="cls-2" points="372.9 2.5 378.9 2.5 378.9 8.5"/><line class="cls-5" x1="378.9" y1="20.76" x2="378.9" y2="333.37"/><rect class="cls-6" x="418.4" y="25" width="52" height="321"/><rect class="cls-6" x="257.4" y="41" width="59" height="305"/><rect class="cls-6" x="653.5" y="330.5" width="34" height="260" transform="translate(-228.3 -15.72) rotate(-17.93)"/></svg>