<?xml version="1.0" standalone="no"?><!DOCTYPE svg PUBLIC "-//W3C//DTD SVG 1.1//EN" "http://www.w3.org/Graphics/SVG/1.1/DTD/svg11.dtd"><svg t="1556088630429" class="icon" style="" viewBox="0 0 1024 1024" version="1.1" xmlns="http://www.w3.org/2000/svg" p-id="15640" xmlns:xlink="http://www.w3.org/1999/xlink" width="200" height="200"><defs><style type="text/css"></style></defs><path d="M691.809524 557.104762H332.8C162.864762 557.104762 25.088 691.687619 25.088 857.721905v50.078476c0 55.344762 45.909333 100.205714 102.570667 100.205714h769.29219c56.636952 0 102.570667-44.860952 102.570667-100.205714V857.721905c0-166.009905-137.752381-300.568381-307.712-300.568381zM966.217143 889.173333c0 43.568762-21.723429 81.798095-100.059429 80.335238H158.45181c-82.773333 0-98.182095-44.78781-98.182096-88.356571v-22.528c0-130.706286 128.170667-266.971429 273.066667-266.971429h365.299809c143.969524 5.12 267.580952 129.584762 267.580953 260.291048v37.254095z m-197.485714-635.172571C768.731429 114.273524 642.438095 0.975238 486.64381 0.975238 330.849524 0.975238 204.604952 114.273524 204.604952 254.000762c0 139.751619 126.293333 253.025524 282.087619 253.025524 155.794286 0 282.063238-113.273905 282.063239-253.025524z m-45.592381 0c0 119.344762-105.862095 216.064-236.495238 216.064-130.608762 0-236.495238-96.719238-236.495239-216.064 0-119.320381 105.886476-216.064 236.495239-216.064 130.633143 0 236.495238 96.743619 236.495238 216.064z" fill="#1c80ff" p-id="15641"></path></svg>