<?xml version="1.0" standalone="no"?><!DOCTYPE svg PUBLIC "-//W3C//DTD SVG 1.1//EN" "http://www.w3.org/Graphics/SVG/1.1/DTD/svg11.dtd"><svg t="1556088388979" class="icon" style="" viewBox="0 0 1024 1024" version="1.1" xmlns="http://www.w3.org/2000/svg" p-id="13724" xmlns:xlink="http://www.w3.org/1999/xlink" width="200" height="200"><defs><style type="text/css"></style></defs><path d="M823.66186667 560.82453333h-792.28586667v52.6912c52.85973333 13.4176 92.00533333 61.12853333 92.00533333 118.15146667 0 57.00266667-39.14986667 104.7424-92.00533333 118.1472v52.71573333h792.28586667c94.35946667 0 170.84266667-76.4992 170.84266666-170.84266666s-76.4992-170.84266667-170.84266666-170.84266667zM823.66186667 857.46026667h-712.4096c35.44426667-30.92266667 57.16373333-76.27093333 57.16373333-125.77813334 0-49.49866667-21.73333333-94.85973333-57.16266667-125.77813333h712.39146667c69.37493333 0 125.77813333 56.43306667 125.77813333 125.77813333s-56.43306667 125.77813333-125.77813333 125.77813334z" fill="#2c2c2c" p-id="13725"></path><path d="M994.528 159.16266667v-52.6912h-792.28586667c-94.35946667 0-170.84266667 76.4992-170.84266666 170.84266666s76.4992 170.84266667 170.84266666 170.84266667h792.28586667v-52.71573333c-52.85973333-13.4176-92.00533333-61.14026667-92.00533333-118.1472 0-57.02613333 39.14986667-104.75306667 92.00533333-118.15146667zM857.46026667 277.29813333c0 49.49866667 21.73333333 94.864 57.16373333 125.77813334h-712.4096c-69.37493333 0-125.77813333-56.43306667-125.77813333-125.77813334s56.43306667-125.77813333 125.77813333-125.77813333h712.39146667c-35.44426667 30.92266667-57.16266667 76.30186667-57.16266667 125.77813333z" fill="#2c2c2c" p-id="13726"></path></svg>