<?xml version="1.0" standalone="no"?><!DOCTYPE svg PUBLIC "-//W3C//DTD SVG 1.1//EN" "http://www.w3.org/Graphics/SVG/1.1/DTD/svg11.dtd"><svg t="1556087504961" class="icon" style="" viewBox="0 0 1024 1024" version="1.1" xmlns="http://www.w3.org/2000/svg" p-id="12446" xmlns:xlink="http://www.w3.org/1999/xlink" width="200" height="200"><defs><style type="text/css"></style></defs><path d="M795.397078 565.212971 72.673714 565.212971l0 48.043711c48.16534 12.284594 83.924457 55.706378 83.924457 107.763867 0 52.057489-35.759116 95.600903-83.924457 107.763867l0 48.043711 722.723364 0c86.11379 0 155.807578-69.815418 155.807578-155.807578C951.204656 634.906759 881.510868 565.212971 795.397078 565.212971L795.397078 565.212971zM795.397078 835.717306 145.529873 835.717306c32.353486-28.218078 52.179119-69.572158 52.179119-114.696757 0-45.124599-19.825632-86.478679-52.179119-114.696757l649.867205 0c63.247417 0 114.696757 51.449341 114.696757 114.696757C910.093835 784.267965 858.644495 835.717306 795.397078 835.717306L795.397078 835.717306zM795.397078 835.717306" p-id="12447" fill="#ffffff"></path><path d="M951.326286 198.742844l0-48.043711L228.481292 150.699133C142.489132 150.699133 72.673714 220.51455 72.673714 306.506711S142.489132 462.435919 228.481292 462.435919l722.723364 0 0-48.043711c-48.16534-12.284594-83.924457-55.828008-83.924457-107.763867C867.401829 254.449222 903.039316 210.905808 951.326286 198.742844L951.326286 198.742844zM826.291008 306.506711c0 45.124599 19.825632 86.478679 52.179119 114.696757L228.481292 421.203468c-63.247417 0-114.696757-51.449341-114.696757-114.696757 0-63.247417 51.449341-114.696757 114.696757-114.696757l649.867205 0C845.995011 220.028032 826.291008 261.382112 826.291008 306.506711L826.291008 306.506711zM826.291008 306.506711" p-id="12448" fill="#ffffff"></path></svg>