<?xml version="1.0" standalone="no"?><!DOCTYPE svg PUBLIC "-//W3C//DTD SVG 1.1//EN" "http://www.w3.org/Graphics/SVG/1.1/DTD/svg11.dtd"><svg t="1556089108353" class="icon" style="" viewBox="0 0 1024 1024" version="1.1" xmlns="http://www.w3.org/2000/svg" p-id="32764" xmlns:xlink="http://www.w3.org/1999/xlink" width="200" height="200"><defs><style type="text/css"></style></defs><path d="M806.4 960H217.6c-44.8 0-83.2-38.4-83.2-83.2V147.2c0-44.8 38.4-83.2 83.2-83.2h588.8c44.8 0 83.2 38.4 83.2 83.2v736c0 38.4-38.4 76.8-83.2 76.8z m44.8-812.8c0-25.6-19.2-38.4-44.8-38.4H217.6c-25.6-6.4-44.8 12.8-44.8 38.4v736c0 25.6 19.2 38.4 44.8 38.4h588.8c25.6 0 44.8-19.2 44.8-38.4V147.2zM544 332.8h-51.2L345.6 704h57.6l38.4-102.4h160l32 102.4h57.6L544 332.8zM454.4 563.2L512 409.6c0-12.8 6.4-19.2 6.4-25.6 0 6.4 6.4 19.2 6.4 25.6l57.6 153.6h-128z" p-id="32765" fill="#1c80ff"></path></svg>